<svg width="902" height="576" viewBox="0 0 902 576" fill="none" xmlns="http://www.w3.org/2000/svg">
<path d="M377.47 213.332V223H325.028V213.332L365.165 151.149H327.885V142.287H376.664V151.149L336.82 213.332H377.47ZM414.677 224.611C407.06 224.611 400.565 222.048 395.194 216.921C389.872 211.745 387.211 204.079 387.211 193.923C387.211 183.815 389.872 176.198 395.194 171.071C400.565 165.896 407.06 163.308 414.677 163.308C422.245 163.308 428.69 165.896 434.013 171.071C439.384 176.198 442.069 183.815 442.069 193.923C442.069 204.079 439.384 211.745 434.013 216.921C428.69 222.048 422.245 224.611 414.677 224.611ZM414.677 216.555C419.853 216.555 424.027 214.479 427.201 210.329C430.375 206.179 431.962 200.71 431.962 193.923C431.962 187.185 430.375 181.74 427.201 177.59C424.027 173.439 419.853 171.364 414.677 171.364C409.452 171.364 405.253 173.439 402.079 177.59C398.905 181.74 397.318 187.185 397.318 193.923C397.318 200.71 398.905 206.179 402.079 210.329C405.253 214.479 409.452 216.555 414.677 216.555ZM464.262 223H454.594V164.919H464.262V174.953C466.312 171.779 468.29 169.436 470.194 167.922C472.147 166.408 474.174 165.261 476.273 164.479C478.373 163.698 480.717 163.308 483.305 163.308C486.918 163.308 490.165 164.064 493.046 165.578C495.976 167.043 498.222 169.24 499.784 172.17C501.396 175.051 502.201 179.665 502.201 186.013V223H492.533V190.188C492.533 184.963 492.191 181.276 491.508 179.128C490.824 176.979 489.457 175.295 487.406 174.074C485.404 172.805 483.231 172.17 480.888 172.17C478.056 172.17 475.346 173 472.758 174.66C470.219 176.32 468.168 178.664 466.605 181.691C465.043 184.67 464.262 188.918 464.262 194.436V223ZM554.716 208.059H564.384V208.571C564.384 211.159 563.358 213.796 561.308 216.481C559.257 219.118 556.547 221.145 553.178 222.561C549.809 223.928 545.951 224.611 541.605 224.611C532.768 224.611 525.932 221.755 521.098 216.042C516.312 210.329 513.92 203.103 513.92 194.362C513.92 185.427 516.459 178.029 521.537 172.17C526.615 166.262 533.158 163.308 541.166 163.308C545.561 163.308 549.54 164.26 553.104 166.164C556.718 168.068 559.55 171.047 561.601 175.1C563.7 179.104 564.75 184.719 564.75 191.945V195.168H523.515C523.515 201.369 525.175 206.496 528.495 210.549C531.864 214.553 536.503 216.555 542.411 216.555C546.659 216.555 549.76 215.749 551.713 214.138C553.715 212.478 554.716 210.622 554.716 208.571V208.059ZM524.101 187.917H555.448V186.745C555.448 184.06 554.789 181.447 553.471 178.908C552.201 176.32 550.419 174.416 548.124 173.195C545.829 171.975 543.168 171.364 540.141 171.364C536.527 171.364 533.183 172.829 530.106 175.759C527.079 178.64 525.077 182.692 524.101 187.917ZM376.664 355.642H386.332V356.154C386.332 359.328 385.233 362.575 383.036 365.896C380.839 369.167 377.86 371.56 374.101 373.073C370.341 374.636 365.897 375.417 360.771 375.417C350.517 375.417 342.118 371.853 335.575 364.724C329.081 357.595 325.834 346.901 325.834 332.644C325.834 318.483 329.081 307.814 335.575 300.637C342.069 293.459 350.492 289.87 360.844 289.87C365.922 289.87 370.341 290.651 374.101 292.214C377.86 293.728 380.839 296.169 383.036 299.538C385.233 302.858 386.332 306.057 386.332 309.133V309.646H376.664V309.133C376.664 307.18 376.029 305.3 374.76 303.493C373.539 301.638 371.781 300.246 369.486 299.318C367.191 298.391 364.433 297.927 361.21 297.927C352.958 297.927 346.806 301.198 342.753 307.741C338.7 314.235 336.674 322.536 336.674 332.644C336.674 342.849 338.7 351.198 342.753 357.692C346.854 364.138 352.982 367.36 361.137 367.36C366.752 367.36 370.731 366.213 373.075 363.918C375.468 361.574 376.664 358.986 376.664 356.154V355.642ZM407.719 373H398.051V289.064H407.719V324.953C409.77 321.779 411.747 319.436 413.651 317.922C415.604 316.408 417.631 315.261 419.73 314.479C421.83 313.698 424.174 313.308 426.762 313.308C430.375 313.308 433.622 314.064 436.503 315.578C439.433 317.043 441.679 319.24 443.241 322.17C444.853 325.051 445.658 329.665 445.658 336.013V373H435.99V340.188C435.99 334.963 435.648 331.276 434.965 329.128C434.281 326.979 432.963 325.295 431.01 324.074C429.057 322.805 426.835 322.17 424.345 322.17C421.513 322.17 418.803 323 416.215 324.66C413.676 326.32 411.625 328.664 410.062 331.691C408.5 334.67 407.719 338.918 407.719 344.436V373ZM496.049 373C495.023 369.875 494.511 367.189 494.511 364.943C490.263 369.143 486.649 371.804 483.671 372.927C480.692 374.05 477.812 374.611 475.028 374.611C470.438 374.611 466.483 373.195 463.163 370.363C459.843 367.531 458.183 363.649 458.183 358.718C458.183 353.103 460.502 348.781 465.141 345.754C469.828 342.678 477.885 340.017 489.311 337.771L494.511 336.818V330.227C494.511 326.662 493.314 324.172 490.922 322.756C488.529 321.291 485.648 320.559 482.279 320.559C478.275 320.559 475.126 321.462 472.831 323.269C470.585 325.026 469.462 327.077 469.462 329.421V330.227H458.988V329.494C458.988 326.906 460.062 324.245 462.211 321.511C464.408 318.776 467.289 316.726 470.854 315.358C474.467 313.942 478.397 313.234 482.646 313.234C486.894 313.234 490.751 313.894 494.218 315.212C497.685 316.53 500.199 318.312 501.762 320.559C503.373 322.805 504.179 327.004 504.179 333.156V355.715C504.179 358.205 504.228 360.817 504.325 363.552C504.472 366.237 505.106 369.387 506.229 373H496.049ZM494.511 343.703L491.581 344.362C481.767 346.755 475.492 349.05 472.758 351.247C470.023 353.396 468.656 355.959 468.656 358.938C468.656 360.451 469.047 361.867 469.828 363.186C470.658 364.504 471.879 365.529 473.49 366.262C475.102 366.994 476.688 367.36 478.251 367.36C480.937 367.36 483.573 366.579 486.161 365.017C488.798 363.405 490.849 361.281 492.313 358.645C493.778 356.008 494.511 352.932 494.511 349.416V343.703ZM528.715 373H519.047V289.064H528.715V373ZM553.764 373H544.096V289.064H553.764V373ZM607.157 358.059H616.825V358.571C616.825 361.159 615.8 363.796 613.749 366.481C611.698 369.118 608.988 371.145 605.619 372.561C602.25 373.928 598.393 374.611 594.047 374.611C585.209 374.611 578.373 371.755 573.539 366.042C568.754 360.329 566.361 353.103 566.361 344.362C566.361 335.427 568.9 328.029 573.979 322.17C579.057 316.262 585.6 313.308 593.607 313.308C598.002 313.308 601.981 314.26 605.546 316.164C609.159 318.068 611.991 321.047 614.042 325.1C616.142 329.104 617.191 334.719 617.191 341.945V345.168H575.956C575.956 351.369 577.616 356.496 580.937 360.549C584.306 364.553 588.944 366.555 594.853 366.555C599.101 366.555 602.201 365.749 604.154 364.138C606.156 362.478 607.157 360.622 607.157 358.571V358.059ZM576.542 337.917H607.89V336.745C607.89 334.06 607.23 331.447 605.912 328.908C604.643 326.32 602.86 324.416 600.565 323.195C598.271 321.975 595.609 321.364 592.582 321.364C588.969 321.364 585.624 322.829 582.548 325.759C579.521 328.64 577.519 332.692 576.542 337.917ZM640.189 373H630.521V314.919H640.189V324.953C642.24 321.779 644.218 319.436 646.122 317.922C648.075 316.408 650.102 315.261 652.201 314.479C654.301 313.698 656.645 313.308 659.232 313.308C662.846 313.308 666.093 314.064 668.974 315.578C671.903 317.043 674.149 319.24 675.712 322.17C677.323 325.051 678.129 329.665 678.129 336.013V373H668.461V340.188C668.461 334.963 668.119 331.276 667.436 329.128C666.752 326.979 665.385 325.295 663.334 324.074C661.332 322.805 659.159 322.17 656.815 322.17C653.983 322.17 651.273 323 648.686 324.66C646.146 326.32 644.096 328.664 642.533 331.691C640.971 334.67 640.189 338.918 640.189 344.436V373ZM732.621 360.695C730.619 364.797 728.031 367.873 724.857 369.924C721.732 371.975 717.997 373 713.651 373C706.767 373 701.078 370.29 696.586 364.87C692.094 359.45 689.848 352.321 689.848 343.483C689.848 337.624 690.849 332.302 692.851 327.517C694.853 322.731 697.66 319.167 701.273 316.823C704.936 314.479 709.232 313.308 714.164 313.308C717.777 313.308 721.024 314.04 723.905 315.505C726.786 316.921 729.691 319.826 732.621 324.221V314.919H742.289V362.38C742.289 374.294 741.02 382.155 738.48 385.964C735.99 389.821 732.841 392.653 729.032 394.46C725.224 396.315 720.731 397.243 715.556 397.243C710.771 397.243 706.474 396.535 702.665 395.119C698.856 393.703 695.951 391.75 693.949 389.26C691.996 386.77 691.02 384.182 691.02 381.496V380.617H700.688V381.496C700.688 384.035 702.079 386.062 704.862 387.575C707.646 389.138 711.161 389.919 715.409 389.919C718.876 389.919 721.854 389.309 724.345 388.088C726.835 386.916 728.837 384.987 730.351 382.302C731.864 379.616 732.621 374.758 732.621 367.727V360.695ZM732.621 342.238C732.621 336.037 731.01 331.008 727.787 327.15C724.613 323.293 720.805 321.364 716.361 321.364C711.674 321.364 707.768 323.317 704.643 327.224C701.518 331.081 699.955 336.525 699.955 343.557C699.955 348 700.565 351.882 701.786 355.202C703.056 358.522 705.009 361.062 707.646 362.819C710.331 364.528 713.163 365.383 716.142 365.383C721.024 365.383 724.979 363.234 728.007 358.938C731.083 354.592 732.621 349.025 732.621 342.238ZM795.683 358.059H805.351V358.571C805.351 361.159 804.325 363.796 802.274 366.481C800.224 369.118 797.514 371.145 794.145 372.561C790.775 373.928 786.918 374.611 782.572 374.611C773.734 374.611 766.898 371.755 762.064 366.042C757.279 360.329 754.887 353.103 754.887 344.362C754.887 335.427 757.426 328.029 762.504 322.17C767.582 316.262 774.125 313.308 782.133 313.308C786.527 313.308 790.507 314.26 794.071 316.164C797.685 318.068 800.517 321.047 802.567 325.1C804.667 329.104 805.717 334.719 805.717 341.945V345.168H764.481C764.481 351.369 766.142 356.496 769.462 360.549C772.831 364.553 777.47 366.555 783.378 366.555C787.626 366.555 790.727 365.749 792.68 364.138C794.682 362.478 795.683 360.622 795.683 358.571V358.059ZM765.067 337.917H796.415V336.745C796.415 334.06 795.756 331.447 794.438 328.908C793.168 326.32 791.386 324.416 789.091 323.195C786.796 321.975 784.135 321.364 781.107 321.364C777.494 321.364 774.149 322.829 771.073 325.759C768.046 328.64 766.044 332.692 765.067 337.917Z" fill="#011627"/>
<path d="M271.667 151.625H202.333V376.688C202.333 381.557 200.618 385.659 197.188 388.996C193.757 392.332 189.694 394 185 394C180.306 394 176.243 392.332 172.813 388.996C169.382 385.659 167.667 381.557 167.667 376.688V151.625H98.3333C93.4583 151.625 89.3507 149.957 86.0104 146.621C82.6701 143.284 81 139.227 81 134.448C81 129.669 82.6701 125.566 86.0104 122.14C89.3507 118.713 93.4583 117 98.3333 117H271.667C276.361 117 280.424 118.713 283.854 122.14C287.285 125.566 289 129.669 289 134.448C289 139.227 287.33 143.284 283.99 146.621C280.649 149.957 276.542 151.625 271.667 151.625Z" fill="#E71D36"/>
</svg>
